<svg xmlns="http://www.w3.org/2000/svg" viewBox="2950 1441 63.731 82.998"><defs><style>.a{fill:#e9e9e0;}.b{fill:#d9d7ca;}.c{fill:#8697cb;}.d{fill:#0096e6;}.e{fill:#fff;}</style></defs><g transform="translate(2943.5 1441)"><path class="a" d="M51.682,0H8.668C7.471,0,6.5.971,6.5,2.855V81.516A2.232,2.232,0,0,0,8.668,83H68.062a2.232,2.232,0,0,0,2.168-1.482V19.235c0-1.032-.138-1.364-.381-1.608L52.6.381A1.31,1.31,0,0,0,51.682,0Z"/><path class="b" d="M37.5.151V17.713H55.062Z" transform="translate(14.945 0.073)"/><path class="c" d="M21.875,13.964H12.982a1.482,1.482,0,0,1,0-2.964h8.893a1.482,1.482,0,1,1,0,2.964Z" transform="translate(2.411 5.303)"/><path class="c" d="M26.321,18.964H12.982a1.482,1.482,0,0,1,0-2.964H26.321a1.482,1.482,0,0,1,0,2.964Z" transform="translate(2.411 7.714)"/><path class="c" d="M25.982,18.958a1.468,1.468,0,1,1,1.052-.43A1.558,1.558,0,0,1,25.982,18.958Z" transform="translate(8.678 7.72)"/><path class="c" d="M41.839,18.964H29.982a1.482,1.482,0,0,1,0-2.964H41.839a1.482,1.482,0,1,1,0,2.964Z" transform="translate(10.606 7.714)"/><path class="c" d="M12.982,33.958a1.486,1.486,0,1,1,1.052-2.534,1.531,1.531,0,0,1,.43,1.052,1.468,1.468,0,0,1-1.482,1.482Z" transform="translate(2.411 14.951)"/><path class="c" d="M28.839,33.964H16.982a1.482,1.482,0,1,1,0-2.964H28.839a1.482,1.482,0,1,1,0,2.964Z" transform="translate(4.339 14.945)"/><path class="c" d="M44.946,18.964H41.982a1.482,1.482,0,0,1,0-2.964h2.964a1.482,1.482,0,0,1,0,2.964Z" transform="translate(16.392 7.714)"/><path class="c" d="M45.589,23.964H12.982a1.482,1.482,0,0,1,0-2.964H45.589a1.482,1.482,0,0,1,0,2.964Z" transform="translate(2.411 10.124)"/><path class="c" d="M46.875,23.964H37.982a1.482,1.482,0,0,1,0-2.964h8.893a1.482,1.482,0,1,1,0,2.964Z" transform="translate(14.463 10.124)"/><path class="c" d="M18.911,28.964H12.982a1.482,1.482,0,0,1,0-2.964h5.928a1.482,1.482,0,1,1,0,2.964Z" transform="translate(2.411 12.535)"/><path class="c" d="M35.8,28.964H20.982a1.482,1.482,0,1,1,0-2.964H35.8a1.482,1.482,0,0,1,0,2.964Z" transform="translate(6.267 12.535)"/><path class="c" d="M48.321,28.964H34.982a1.482,1.482,0,1,1,0-2.964H48.321a1.482,1.482,0,0,1,0,2.964Z" transform="translate(13.017 12.535)"/><path class="d" d="M68.062,64.2H8.668A2.168,2.168,0,0,1,6.5,62.028V39H70.231V62.028A2.168,2.168,0,0,1,68.062,64.2Z" transform="translate(0 18.802)"/><g transform="translate(19.64 63.375)"><path class="e" d="M27.421,49.976a10.971,10.971,0,0,1-.4,3.151,7.833,7.833,0,0,1-1,2.189A5.154,5.154,0,0,1,24.654,56.7a6.862,6.862,0,0,1-1.469.76,6.069,6.069,0,0,1-1.3.325,8.644,8.644,0,0,1-.87.068H15.366V42.924h4.5a8.547,8.547,0,0,1,3.313.6,6.878,6.878,0,0,1,2.371,1.59,6.528,6.528,0,0,1,1.408,2.259A7.48,7.48,0,0,1,27.421,49.976Zm-7.213,6.1a4.026,4.026,0,0,0,3.566-1.58,8.021,8.021,0,0,0,1.094-4.58,7.757,7.757,0,0,0-.222-1.844,3.944,3.944,0,0,0-.861-1.651,4.545,4.545,0,0,0-1.733-1.2,7.46,7.46,0,0,0-2.837-.456H17.8V56.075h2.411Z" transform="translate(-15.366 -42.681)"/><path class="e" d="M37.522,50.4a10.579,10.579,0,0,1-.476,3.323,6.777,6.777,0,0,1-1.318,2.391,5.513,5.513,0,0,1-1.965,1.439,6.476,6.476,0,0,1-4.924,0,5.513,5.513,0,0,1-1.965-1.439,6.79,6.79,0,0,1-1.318-2.391,11.806,11.806,0,0,1,0-6.635,6.756,6.756,0,0,1,1.318-2.38,5.633,5.633,0,0,1,1.965-1.45,6.351,6.351,0,0,1,4.924,0,5.633,5.633,0,0,1,1.965,1.45,6.829,6.829,0,0,1,1.318,2.38A10.522,10.522,0,0,1,37.522,50.4Zm-6.283,5.654a3.568,3.568,0,0,0,1.429-.293,3.194,3.194,0,0,0,1.215-.962,4.87,4.87,0,0,0,.84-1.753,10.532,10.532,0,0,0,.325-2.644,10.337,10.337,0,0,0-.314-2.583,5.186,5.186,0,0,0-.811-1.753,3.123,3.123,0,0,0-1.175-.993,3.265,3.265,0,0,0-1.389-.3,3.657,3.657,0,0,0-1.429.283,3.061,3.061,0,0,0-1.215.962,4.955,4.955,0,0,0-.84,1.753A10.34,10.34,0,0,0,27.55,50.4a10.471,10.471,0,0,0,.314,2.594,5.08,5.08,0,0,0,.811,1.753,3.249,3.249,0,0,0,1.175.993A3.2,3.2,0,0,0,31.239,56.053Z" transform="translate(-10.682 -42.76)"/><path class="e" d="M45.981,56.418A5.528,5.528,0,0,1,44.1,57.633a6.243,6.243,0,0,1-2.269.4,6.128,6.128,0,0,1-2.462-.486A5.513,5.513,0,0,1,37.4,56.112a6.79,6.79,0,0,1-1.318-2.391,11.806,11.806,0,0,1,0-6.635,6.755,6.755,0,0,1,1.318-2.38,5.6,5.6,0,0,1,1.976-1.45,6.03,6.03,0,0,1,2.451-.5,6.275,6.275,0,0,1,2.269.4,5.536,5.536,0,0,1,1.884,1.215L44.3,45.88a3.072,3.072,0,0,0-1.125-.851,3.26,3.26,0,0,0-1.286-.264,3.657,3.657,0,0,0-1.429.283,3.061,3.061,0,0,0-1.215.962,4.955,4.955,0,0,0-.84,1.753,10.341,10.341,0,0,0-.325,2.634,10.471,10.471,0,0,0,.314,2.594,5.08,5.08,0,0,0,.811,1.753,3.249,3.249,0,0,0,1.175.993,3.168,3.168,0,0,0,1.389.314,3.559,3.559,0,0,0,1.368-.264,3.212,3.212,0,0,0,1.165-.851Z" transform="translate(-5.607 -42.76)"/></g></g></svg>