<svg xmlns="http://www.w3.org/2000/svg" viewBox="2950 1222 64.786 84.374"><defs><style>.a{fill:#e9e9e0;}.b{fill:#d9d7ca;}.c{fill:#7d6599;}.d{fill:#fff;}.e{fill:#c8bdb8;}</style></defs><g transform="translate(2943.5 1222)"><path class="a" d="M52.453,0H8.76C7.494,0,6.5.979,6.5,2.908V82.866c0,.527.979,1.507,2.2,1.507H69.026c1.22,0,2.2-.979,2.2-1.507V19.587c0-1.055-.136-1.386-.392-1.642L53.372.392A1.311,1.311,0,0,0,52.453,0Z" transform="translate(0)"/><path class="b" d="M37.5.15V18H55.354Z" transform="translate(15.706 0.076)"/><path class="c" d="M69.026,64.613H8.76a2.2,2.2,0,0,1-2.26-2.2V39H71.286V62.413a2.2,2.2,0,0,1-2.26,2.2Z" transform="translate(0 19.76)"/><path class="d" d="M26.271,42.92h2.516V58.107H26.271V47.666L22.866,56.1H20.681l-3.42-8.437V58.107h-2.5V42.92h2.5L21.781,53.3Z" transform="translate(4.185 21.746)"/><path class="d" d="M29.041,58.107H26.57V42.92h4.369a6.027,6.027,0,0,1,1.913.316,5.484,5.484,0,0,1,1.7.919,4.881,4.881,0,0,1,1.205,1.507,4.008,4.008,0,0,1,.5,1.9,5.514,5.514,0,0,1-.392,2.094,4.52,4.52,0,0,1-1.085,1.507,4.927,4.927,0,0,1-1.687.979,6.388,6.388,0,0,1-2.185.347H29.041Zm0-13.3V50.83h2.275a2.622,2.622,0,0,0,.889-.151,2.125,2.125,0,0,0,.814-.512,2.471,2.471,0,0,0,.6-.979,4.52,4.52,0,0,0,.226-1.507,5.093,5.093,0,0,0-.105-.859,2.652,2.652,0,0,0-.422-.919,2.35,2.35,0,0,0-.9-.738,3.149,3.149,0,0,0-1.507-.3Z" transform="translate(10.169 21.746)"/><path class="d" d="M40.652,50.129a3.149,3.149,0,0,1,.964.316,3.465,3.465,0,0,1,.949.708,3.872,3.872,0,0,1,.723,1.1,3.767,3.767,0,0,1,.286,1.507,4.882,4.882,0,0,1-.3,1.778,4.068,4.068,0,0,1-.753,1.251,3.646,3.646,0,0,1-1.025.783,6.027,6.027,0,0,1-1.1.452,6.824,6.824,0,0,1-.979.181h-.693A12.9,12.9,0,0,1,36,57.963a4.7,4.7,0,0,1-1.386-.482l.588-1.748.347.226a1.673,1.673,0,0,0,.467.241,4.143,4.143,0,0,0,.874.181,10.216,10.216,0,0,0,1.507,0,2.742,2.742,0,0,0,2.124-.768,2.772,2.772,0,0,0,.708-1.868,2.848,2.848,0,0,0-.633-1.883,2.335,2.335,0,0,0-1.868-.753H36.6V49.436h2.32a2.215,2.215,0,0,0,.874-.226,1.627,1.627,0,0,0,.678-.708,3.013,3.013,0,0,0,.271-1.416,7.127,7.127,0,0,0,0-.783,1.688,1.688,0,0,0-.347-.768,1.853,1.853,0,0,0-.814-.557,3.887,3.887,0,0,0-1.507-.226,5.183,5.183,0,0,0-1.507.181c-.377.105-.663.211-.844.271L35,43.349l1.22-.3a9.477,9.477,0,0,1,2.109-.166,6.689,6.689,0,0,1,1.838.241,4.143,4.143,0,0,1,1.507.738,3.646,3.646,0,0,1,1.04,1.326,4.309,4.309,0,0,1,.377,1.9,2.893,2.893,0,0,1-.226,1.16,3.51,3.51,0,0,1-.573.919,3.977,3.977,0,0,1-.783.648,2.818,2.818,0,0,1-.859.316Z" transform="translate(14.242 21.724)"/><path class="e" d="M38.1,26.949V40.268a1.371,1.371,0,0,1-2.335,1.025l-5.213-4.52c-1.1-.949-2.215-1.883-3.3-2.863a1.657,1.657,0,0,0-1.22-.437H18.863c-1.266,0-1.718-.467-1.733-1.748V22.037c0-1.251.482-1.718,1.748-1.718h7.307a2.079,2.079,0,0,0,1.205-.452c2.772-2.365,5.514-4.761,8.272-7.127.768-.663,1.627-.693,2.094,0a2.622,2.622,0,0,1,.347,1.281V26.949Z" transform="translate(5.386 6.198)"/><path class="e" d="M40.877,25.752a17.794,17.794,0,0,1-3.315,10.306,1.386,1.386,0,0,1-1.763.618,1.3,1.3,0,0,1-.783-1.507,2.29,2.29,0,0,1,.377-.8,14.931,14.931,0,0,0-.09-17.447,1.416,1.416,0,0,1,.181-2.064,1.386,1.386,0,0,1,2.049.5,17.809,17.809,0,0,1,3.345,10.4Z" transform="translate(14.409 7.395)"/><path class="e" d="M36.807,24.535a12.43,12.43,0,0,1-1.748,6.238,1.371,1.371,0,0,1-1.989.693,1.386,1.386,0,0,1-.362-2.034,9.507,9.507,0,0,0,0-9.989,1.371,1.371,0,1,1,2.335-1.4A12.55,12.55,0,0,1,36.807,24.535Z" transform="translate(13.13 8.732)"/></g></svg>