<svg xmlns="http://www.w3.org/2000/svg" viewBox="2950 1002 64.74 84.313"><defs><style>.a{fill:#e9e9e0;}.b{fill:#d9d7ca;}.c{fill:#cc4b4c;}.d{fill:#fff;}</style></defs><g transform="translate(2943.5 1002)"><path class="a" d="M52.4,0H8.7C7.486,0,6.5.986,6.5,2.9V82.807a2.267,2.267,0,0,0,2.2,1.506H69.037a2.267,2.267,0,0,0,2.2-1.506V19.539c0-1.048-.14-1.385-.387-1.634L53.334.387A1.33,1.33,0,0,0,52.4,0Z"/><path class="b" d="M37.5.151v17.84H55.34Z" transform="translate(15.673 0.076)"/><path class="c" d="M20.574,46.679h0a2.417,2.417,0,0,1-1.456-.491,3.608,3.608,0,0,1-1.679-3.376c.274-2.451,3.3-5.017,9.011-7.63A101.064,101.064,0,0,0,32.153,19c-1.5-3.27-2.963-7.513-1.9-10a2.888,2.888,0,0,1,1.707-1.829,7.392,7.392,0,0,1,1.53-.259c.759,0,1.426.977,1.9,1.579.444.566,1.451,1.766-.562,10.241a48.109,48.109,0,0,0,7.66,11.385,29.291,29.291,0,0,1,5.056-.539c2.358,0,3.787.55,4.369,1.682.482.936.285,2.031-.587,3.252A4,4,0,0,1,47.984,36.3c-1.831,0-3.963-1.156-6.34-3.44A72.14,72.14,0,0,0,28.353,37.11a42.718,42.718,0,0,1-3.588,6.4C23.222,45.671,21.891,46.679,20.574,46.679Zm4.008-7.718c-3.217,1.808-4.529,3.294-4.624,4.131-.015.139-.056.5.649,1.042C20.831,44.064,22.141,43.466,24.581,38.962Zm20.532-6.688c1.227.944,1.527,1.421,2.329,1.421a2.27,2.27,0,0,0,1.822-.664,2.383,2.383,0,0,0,.346-.625c-.185-.1-.431-.3-1.769-.3A22.014,22.014,0,0,0,45.113,32.274Zm-11.247-9.91A107.336,107.336,0,0,1,29.84,33.752a75.227,75.227,0,0,1,9.78-3.041A51.537,51.537,0,0,1,33.866,22.364Zm-.914-12.74a3.611,3.611,0,0,0,.145,4.842C34.526,11.282,33.017,9.6,32.952,9.624Z" transform="translate(5.52 3.493)"/><path class="c" d="M69.037,64.595H8.7a2.2,2.2,0,0,1-2.2-2.2V39H71.24V62.392A2.2,2.2,0,0,1,69.037,64.595Z" transform="translate(0 19.718)"/><g transform="translate(20.418 64.626)"><path class="d" d="M18.215,58.094H15.744V42.924h4.363a6.124,6.124,0,0,1,1.914.309,5.2,5.2,0,0,1,1.7.926,4.835,4.835,0,0,1,1.215,1.492,4.134,4.134,0,0,1,.464,1.966,5.379,5.379,0,0,1-.391,2.09,4.367,4.367,0,0,1-1.092,1.575,4.918,4.918,0,0,1-1.688.988,6.5,6.5,0,0,1-2.182.349H18.213v5.476Zm0-13.3v6.01h2.264a2.69,2.69,0,0,0,.9-.155,2.257,2.257,0,0,0,.813-.5,2.465,2.465,0,0,0,.6-.977,4.629,4.629,0,0,0,.226-1.554,4.2,4.2,0,0,0-.1-.854,2.465,2.465,0,0,0-.422-.926,2.5,2.5,0,0,0-.9-.741,3.328,3.328,0,0,0-1.524-.3H18.215Z" transform="translate(-15.744 -42.924)"/><path class="d" d="M36.332,50.088a11.145,11.145,0,0,1-.4,3.2,7.957,7.957,0,0,1-1.019,2.224,5.236,5.236,0,0,1-1.39,1.411,6.97,6.97,0,0,1-1.492.772,6.165,6.165,0,0,1-1.317.33,8.772,8.772,0,0,1-.885.069H24.084V42.924h4.569a8.682,8.682,0,0,1,3.365.607,6.987,6.987,0,0,1,2.409,1.615,6.631,6.631,0,0,1,1.43,2.295A7.6,7.6,0,0,1,36.332,50.088ZM29,56.283a4.09,4.09,0,0,0,3.622-1.6,8.148,8.148,0,0,0,1.111-4.652,7.88,7.88,0,0,0-.226-1.873,4.007,4.007,0,0,0-.875-1.677,4.617,4.617,0,0,0-1.76-1.215A7.579,7.579,0,0,0,28,44.8H26.555V56.283H29Z" transform="translate(-11.527 -42.924)"/><path class="d" d="M37.109,44.8v4.776h6.34V51.26h-6.34v6.834H34.6V42.924h9.488V44.8Z" transform="translate(-6.212 -42.924)"/></g></g></svg>