<svg xmlns="http://www.w3.org/2000/svg" viewBox="2950 1662 64.404 83.875"><defs><style>.a{fill:#e9e9e0;}.b{fill:#d9d7ca;}.c{fill:#f6712e;}.d{fill:#fff;}.e{fill:#c8bdb8;}.f{fill:#d3ccc9;}</style></defs><g transform="translate(2943.5 1662)"><path class="a" d="M52.159,0H8.691C7.481,0,6.5.981,6.5,2.885V82.377a2.256,2.256,0,0,0,2.191,1.5H68.713a2.256,2.256,0,0,0,2.191-1.5V19.438c0-1.042-.139-1.378-.385-1.625L53.091.385A1.324,1.324,0,0,0,52.159,0Z" transform="translate(0)"/><path class="b" d="M37.5.151V17.9H55.247Z" transform="translate(15.431 0.075)"/><path class="c" d="M68.713,64.462H8.691A2.191,2.191,0,0,1,6.5,62.271V39H70.9V62.271A2.191,2.191,0,0,1,68.713,64.462Z" transform="translate(0 19.413)"/><g transform="translate(20.639 64.29)"><path class="d" d="M18.4,58.016H15.94V42.924h4.341a6.092,6.092,0,0,1,1.9.307,5.177,5.177,0,0,1,1.689.921,4.81,4.81,0,0,1,1.209,1.484,4.112,4.112,0,0,1,.461,1.956,5.351,5.351,0,0,1-.389,2.079,4.345,4.345,0,0,1-1.086,1.567,4.893,4.893,0,0,1-1.679.983,6.461,6.461,0,0,1-2.17.347H18.4v5.447Zm0-13.228v5.979H20.65a2.677,2.677,0,0,0,.891-.154,2.245,2.245,0,0,0,.809-.5,2.453,2.453,0,0,0,.593-.972,4.6,4.6,0,0,0,.225-1.546,4.181,4.181,0,0,0-.1-.849,2.452,2.452,0,0,0-.419-.921,2.482,2.482,0,0,0-.891-.737,3.311,3.311,0,0,0-1.516-.3H18.4Z" transform="translate(-15.94 -42.924)"/><path class="d" d="M26.67,58.016H24.212V42.924h4.341a6.092,6.092,0,0,1,1.9.307,5.177,5.177,0,0,1,1.689.921,4.81,4.81,0,0,1,1.209,1.484,4.113,4.113,0,0,1,.461,1.956,5.351,5.351,0,0,1-.389,2.079,4.345,4.345,0,0,1-1.086,1.567,4.893,4.893,0,0,1-1.679.983,6.461,6.461,0,0,1-2.17.347H26.668v5.447Zm0-13.228v5.979h2.253a2.677,2.677,0,0,0,.891-.154,2.245,2.245,0,0,0,.809-.5,2.453,2.453,0,0,0,.593-.972,4.6,4.6,0,0,0,.225-1.546,4.181,4.181,0,0,0-.1-.849,2.452,2.452,0,0,0-.419-.921,2.482,2.482,0,0,0-.891-.737,3.311,3.311,0,0,0-1.516-.3H26.67Z" transform="translate(-11.822 -42.924)"/><path class="d" d="M43.424,42.924V44.6H38.919V58.016H36.441V44.6H31.936V42.924Z" transform="translate(-7.978 -42.924)"/></g><path class="e" d="M51.446,37.964H15.5V14H51.446Zm-32.951-3H48.451V17H18.5Z" transform="translate(4.48 6.969)"/><path class="e" d="M21,38.485a1.5,1.5,0,0,1-1.284-2.269l4.493-7.489a1.5,1.5,0,0,1,2.569,1.541l-4.493,7.489A1.493,1.493,0,0,1,21,38.485Z" transform="translate(6.471 13.937)"/><path class="e" d="M36.492,38.484a1.5,1.5,0,0,1-1.285-.726l-4.493-7.489a1.5,1.5,0,0,1,2.569-1.541l4.493,7.489a1.5,1.5,0,0,1-1.284,2.268Z" transform="translate(11.947 13.938)"/><path class="e" d="M28,18.489a1.5,1.5,0,0,1-1.5-1.5V12.5a1.5,1.5,0,0,1,3,0v4.493A1.5,1.5,0,0,1,28,18.489Z" transform="translate(9.955 5.475)"/><rect class="f" width="29.955" height="17.973" transform="translate(22.975 23.964)"/></g></svg>